<svg xmlns="http://www.w3.org/2000/svg" viewBox="0 0 80 80"><path fill="#c9c3bf" stroke="#1a1410" stroke-width="2" d="M18 46c2-14 12-22 26-20 8 1 16 8 20 16 3 6 2 14-4 18-8 5-22 6-32 2-8-3-12-9-10-16z"/><path fill="#e8e4e0" stroke="#1a1410" stroke-width="2" d="M22 44c8-2 16-1 18 8 1 6-4 10-10 9-7-1-11-10-8-17z"/><path fill="#e85a7a" d="M58 40c8-2 16 4 14 10-6 2-12-2-14-10z"/><circle cx="30" cy="40" r="2.2" fill="#1a1410"/><path fill="none" stroke="#1a1410" stroke-width="2" stroke-linecap="round" d="M48 30c6-8 16-10 22-6"/></svg>